<svg width="220" height="220" viewBox="0 0 220 220" fill="none" xmlns="http://www.w3.org/2000/svg">
  <defs>
    <linearGradient id="bg" x1="18" y1="18" x2="196" y2="202" gradientUnits="userSpaceOnUse">
      <stop stop-color="#4F8CFF"/>
      <stop offset="1" stop-color="#0EA5E9"/>
    </linearGradient>
    <linearGradient id="glow" x1="54" y1="46" x2="172" y2="170" gradientUnits="userSpaceOnUse">
      <stop stop-color="#E0F2FE"/>
      <stop offset="1" stop-color="#BFE3FF"/>
    </linearGradient>
  </defs>
  <rect x="12" y="12" width="196" height="196" rx="44" fill="url(#bg)"/>
  <path d="M72 68V152H92V124H120.5C143.5 124 158 110.5 158 90.5C158 70.5 143.5 68 120.5 68H72ZM92 88H118C129.5 88 136 90.5 136 98.5C136 106.5 129.5 108 118 108H92V88Z" fill="url(#glow)"/>
  <path d="M88 52H118C142.5 52 162 67.5 162 92.5C162 117.5 142.5 133 118 133H88V52ZM108 72V113H116C132 113 142 104 142 92.5C142 81 132 72 116 72H108Z" fill="#ffffff" opacity="0.18"/>
  <circle cx="147" cy="60" r="12" fill="#DFF7FF" fill-opacity="0.9"/>
  <path d="M146 76V92L162 76H146Z" fill="#DFF7FF" fill-opacity="0.9"/>
</svg>
